<svg width="974" height="150" viewBox="0 0 974 150" fill="none" xmlns="http://www.w3.org/2000/svg">
<path d="M149.631 20.8104L133.988 44.0934C120.816 31.9368 102.704 27.4039 87.0615 27.4039C54.7479 27.4039 31.4903 46.1538 31.4903 75C31.4903 103.846 54.7479 122.596 87.0615 122.596C105.997 122.596 120.404 116.827 135.635 105.288L150.865 127.953C134.4 142.17 111.348 150 87.0615 150C32.5194 150 0 116.415 0 75C0 33.5852 32.5194 0 87.0615 0C113.406 0 134.606 8.03572 149.631 20.8104Z" fill="#0000FF"/>
<path d="M260.963 1.44231L336.499 147.115H318.386C307.066 147.115 303.156 146.497 298.834 137.843L290.189 120.948H201.687L188.515 147.115H155.789L231.325 1.44231H260.963ZM215.477 93.75H276.399L245.938 33.1731L215.477 93.75Z" fill="#0000FF"/>
<path d="M462.99 40.5907C450.846 31.3187 430.059 25.7555 415.445 25.7555C396.304 25.7555 382.514 31.1126 382.514 41.6209C382.514 68.2006 480.278 53.3654 480.278 104.67C480.278 133.104 450.023 150 413.593 150C391.982 150 362.344 142.582 343.203 129.396L358.845 106.113C373.047 117.239 396.098 124.245 416.269 124.245C431.088 124.245 448.582 119.918 448.582 107.967C448.582 79.1209 351.024 96.6346 351.024 46.1539C351.024 19.3681 379.427 0 416.063 0C436.027 0 462.99 6.79945 478.632 17.3077L462.99 40.5907Z" fill="#0000FF"/>
<path d="M634.44 2.88462V30.7006H579.486V147.115H549.025V30.7006H494.071V2.88462H634.44Z" fill="#0000FF"/>
<path d="M813.58 75C813.58 116.415 781.061 150 726.519 150C671.977 150 639.457 116.415 639.457 75C639.457 33.5852 671.977 0 726.519 0C781.061 0 813.58 33.5852 813.58 75ZM726.519 27.4039C693.999 27.4039 670.948 46.1538 670.948 75C670.948 103.846 693.999 122.596 726.519 122.596C758.832 122.596 781.884 103.846 781.884 75C781.884 46.1538 758.832 27.4039 726.519 27.4039Z" fill="#0000FF"/>
<path d="M884.88 74.1758C903.198 74.1758 922.545 74.3819 931.395 65.522C935.306 61.4011 937.364 57.4863 937.364 50.6868C937.364 45.9478 935.306 41.4148 932.425 38.3242C923.986 29.8764 908.755 29.8764 884.88 29.8764C878.5 29.8764 868.003 29.8764 860.594 30.0824V73.9698C868.003 74.1758 878.5 74.1758 884.88 74.1758ZM930.984 97.0467L974 147.115H948.684C939.217 147.115 933.454 144.643 929.337 139.492L897.641 100.755H860.594V147.115H830.132V2.88462C845.363 2.47253 867.592 1.8544 884.675 1.8544C919.87 1.8544 941.686 5.97527 956.505 19.5742C964.738 27.1978 968.855 37.5 968.855 50.8929C968.855 77.0604 953.83 90.6593 930.984 97.0467Z" fill="#0000FF"/>
</svg>
